PathFileType	4	(X/Y/Z)	C:/Users/beibeiliu/ov580/test_trc/User3\sequence.6_training_dense_left.trc
DataRate	CameraRate	NumFrames	NumMarkers	Units	OrigDataRate	OrigDataStartFrame	OrigNumFrames
120	120	13	19	mm	120	74	98
Frame#	Time	ThumbCMC			ThumbMCP			ThumbIP			ThumbTip			IndexMCP			IndexPIP			IndexTip			MiddleMCP			MiddlePIP			MiddleTip			RingMCP			RingPIP			RingTip			PinkyMCP			PinkyPIP			PinkyTip			BackHand1			BackHand2			BackHand3	
		X0	Y0	Z0	X1	Y1	Z1	X2	Y2	Z2	X3	Y3	Z3	X4	Y4	Z4	X5	Y5	Z5	X6	Y6	Z6	X7	Y7	Z7	X8	Y8	Z8	X9	Y9	Z9	X10	Y10	Z10	X11	Y11	Z11	X12	Y12	Z12	X13	Y13	Z13	X14	Y14	Z14	X15	Y15	Z15	X16	Y16	Z16	X17	Y17	Z17	X18	Y18	Z18	
73	0.608333	-107.08	13.1728	-22.8559	-110.053	15.1242	-59.3021	-121.516	12.6302	-90.6994	-139.207	-0.716888	-102.749	-154.62	55.4637	-68.0011	-156.18	64.5174	-101.106	-145.117	42.0448	-123.593	-161.332	27.5373	-84.6408	-145.017	5.8397	-99.73	-135.563	-1.73427	-59.1367	-163.627	3.82009	-76.8157	-138.307	-17.4995	-77.695	-133.066	-14.8636	-44.2054	-167.268	-13.442	-70.9097	-145.932	-30.8421	-66.1159	-139.345	-22.8656	-36.2636	-173.002	12.4335	-22.6526	-165.086	-4.19347	3.5545	-143.674	25.2218	-10.7904	
74	0.616667	-102.934	7.18978	-29.515	-96.9005	-2.21157	-65.2519	-110.277	-12.1219	-94.6452	-128.555	-24.9026	-105.932	-137.208	38.4019	-90.9975	-137.155	36.0968	-123.013	-125.37	13.2253	-141.912	-148.201	9.33134	-99.6399	-134.336	-17.6684	-102.895	-124.375	-14.7999	-65.0758	-154.798	-7.57791	-83.0456	-135.833	-35.7609	-75.514	-129.976	-25.296	-48.1754	-165.225	-23.7347	-71.9691	-144.983	-38.3003	-65.2676	-137.723	-26.4032	-37.2957	-167.152	12.7628	-31.7404	-157.517	11.3244	-2.2824	-132.99	28.5114	-23.5421	
75	0.625	-92.8986	2.13882	-30.8563	-90.983	-17.2287	-60.4252	-97.3985	-31.1015	-86.7214	-119.099	-44.3458	-98.3387	-121.914	20.0826	-100.294	-116.991	5.37727	-130.809	-105.984	-20.1984	-140.603	-135.36	-4.91296	-101.704	-126.311	-35.8823	-99.3587	-120.805	-24.1056	-59.7449	-148.419	-21.4792	-83.7332	-131.053	-44.9975	-73.1684	-126.769	-27.4079	-41.0544	-159.121	-26.0676	-69.869	-143.689	-46.8562	-58.3278	-133.594	-28.4102	-34.522	-154.893	17.8902	-45.1948	-150.632	19.0633	-8.3805	-124.786	28.3346	-28.8443	
76	0.633333	-88.307	-0.735638	-30.072	-84.4861	-24.8674	-53.198	-96.0196	-41.5565	-77.2164	-113.797	-56.2284	-90.4969	-105.884	7.33905	-99.8719	-100.996	-14.3894	-126.587	-98.7653	-44.4702	-125.159	-127.207	-17.2923	-100.721	-121.21	-47.3771	-91.8336	-114.268	-33.567	-55.7429	-139.999	-25.4224	-82.3849	-131.374	-52.3069	-64.1268	-125.134	-34.9791	-38.3194	-155.963	-32.7053	-68.0714	-141.291	-49.9406	-52.9826	-131.581	-27.8382	-27.9666	-148.881	17.1009	-44.0599	-150.987	23.2614	-16.1995	-118.938	28.007	-36.8139	
77	0.641667	-90.1851	-1.32711	-24.121	-86.1015	-28.2844	-47.22	-91.7282	-50.8983	-68.8093	-111.488	-63.4162	-79.0495	-105.551	-5.74073	-98.3631	-99.0579	-32.8639	-118.967	-96.0861	-63.6119	-109.104	-122.654	-25.1879	-95.3991	-116.222	-54.4541	-84.8586	-115.295	-37.4799	-49.0932	-138.956	-33.9434	-77.1742	-130.521	-55.7884	-56.2141	-122.525	-34.5428	-31.6204	-151.933	-36.5915	-64.9272	-137.595	-51.5934	-45.7918	-130.322	-30.9239	-28.4642	-148.476	17.2177	-48.0965	-147.359	24.7431	-16.4245	-116.59	26.3619	-38.0798	
78	0.65	-85.8987	-1.28204	-23.013	-85.9782	-30.816	-45.6142	-93.4549	-53.1547	-62.6695	-115.346	-64.4304	-70.9626	-103.942	-14.1699	-98.1803	-97.5835	-39.4983	-113.9	-95.3516	-68.4243	-103.266	-126.53	-29.1844	-89.7662	-116.188	-59.4244	-73.4005	-111.847	-37.8865	-43.0356	-139.473	-33.7806	-74.0677	-131.976	-58.0554	-51.8513	-123.001	-38.7121	-28.7309	-153.875	-34.1777	-60.364	-137.434	-51.1395	-40.5034	-130.888	-29.362	-23.1904	-144.349	15.6054	-46.3832	-145.3	25.9015	-19.6918	-111.958	24.9485	-37.9286	
79	0.658333	-88.3825	-1.41335	-24.0614	-84.1131	-31.458	-42.5393	-90.8972	-56.6782	-61.3404	-114.96	-68.3336	-69.0739	-104.735	-14.75	-96.0023	-99.2228	-45.7417	-111.863	-93.5493	-70.6118	-102.983	-125.013	-33.3725	-87.8272	-114.931	-59.8508	-73.2446	-114.803	-38.8184	-40.2279	-136.858	-39.6204	-72.6821	-131.031	-57.1236	-48.9006	-121.065	-36.8808	-26.0826	-152.819	-36.8263	-59.3178	-140.53	-52.2733	-39.0849	-132.303	-29.3969	-21.3966	-146.936	14.9425	-46.6761	-144.873	28.7669	-22.331	-113.461	26.7093	-39.906	
80	0.666667	-88.6454	-2.02434	-21.1294	-79.4523	-32.3059	-36.7175	-90.6501	-54.9135	-57.2865	-110.655	-68.5339	-63.7529	-100.069	-18.2023	-97.0618	-94.8779	-47.9943	-109.092	-87.8968	-74.2388	-95.0973	-120.94	-36.0749	-84.763	-113.713	-62.7612	-65.993	-110.976	-39.4272	-36.485	-133.457	-37.974	-69.3483	-125.072	-58.4128	-48.743	-117.251	-34.3135	-23.4041	-151.451	-42.5183	-55.5423	-135.699	-51.0871	-37.9298	-131.085	-29.1015	-17.2734	-147.034	12.9819	-51.3793	-141.755	26.7112	-20.0213	-111.406	25.2484	-36.9096	
81	0.675	-81.3981	-2.30257	-16.3304	-76.8953	-31.3203	-36.9434	-83.124	-53.0055	-58.3438	-102.759	-67.2133	-67.1933	-94.994	-12.4577	-91.8154	-91.428	-39.5197	-108.296	-88.2433	-68.8491	-92.1674	-112.959	-31.6612	-85.9818	-105.694	-60.3321	-71.3155	-110.865	-42.0794	-36.3867	-131.851	-36.1027	-69.3565	-125.226	-59.0271	-50.6899	-114.483	-36.4378	-22.7684	-143.051	-39.4531	-57.0998	-131.241	-51.8101	-37.9768	-129.317	-29.565	-14.7928	-143.585	13.7932	-45.0474	-144.12	23.8929	-16.0806	-109.091	23.9214	-32.5454	
82	0.683333	-80.4323	-0.678249	-14.3588	-73.1239	-23.727	-34.6018	-76.1237	-44.0756	-62.6742	-92.5796	-56.0083	-76.4027	-91.2995	0.452566	-91.4387	-85.1833	-24.1305	-111.286	-84.9339	-54.1156	-99.3573	-112.878	-15.6824	-89.6114	-104.86	-51.1349	-85.3081	-106.343	-46.1108	-47.1922	-129.086	-28.3217	-76.6335	-123.78	-54.9401	-63.3429	-111.569	-43.6989	-33.0251	-144.981	-30.3214	-61.8172	-131.748	-52.6174	-47.9957	-125.848	-37.7225	-22.8745	-137.897	17.1881	-43.7412	-139.842	24.5557	-11.0427	-109.236	27.2907	-24.8835	
83	0.691667	-80.7934	0.172359	-8.64274	-64.6584	-18.2026	-34.3766	-64.5246	-32.4617	-61.1484	-72.4227	-47.4206	-81.3182	-88.8867	9.53746	-86.9791	-83.2161	-10.1821	-113.42	-79.0007	-40.9876	-110.917	-114.703	-3.59122	-95.9326	-108.997	-34.6355	-104.774	-104.737	-52.9262	-73.1151	-129.547	-15.7392	-82.2392	-124.756	-46.8284	-83.1828	-114.838	-52.4484	-49.2929	-147.648	-25.2955	-67.3196	-137.144	-50.8417	-63.3527	-121.088	-46.2539	-36.7072	-139.948	17.29	-39.1267	-142.909	20.7048	-6.93329	-107.428	26.8393	-22.2853	
84	0.7	-77.5834	3.76314	-10.4214	-59.4345	-11.6247	-31.3227	-46.3074	-24.7267	-55.0546	-47.409	-39.6393	-73.7028	-88.4191	10.2945	-85.1614	-82.3784	-8.76661	-114.73	-75.0948	-33.6547	-121.266	-112.445	2.97073	-95.5729	-112.374	-20.3316	-116.019	-103.87	-57.0445	-102.608	-133.848	-8.60517	-85.5628	-128.066	-38.6306	-98.1978	-117.554	-60.9839	-76.5414	-148.603	-18.2789	-71.9119	-145.653	-45.2886	-77.262	-126.554	-58.361	-59.0469	-140.902	19.66	-38.1961	-140.955	21.7979	-4.18099	-106.136	27.0394	-21.444	
85	0.708333	-77.5509	4.33995	-6.47691	-60.3877	-9.10472	-27.2721	-44.1852	-21.2191	-46.5447	-31.8822	-33.3698	-63.7463	-88.7643	3.87973	-87.0437	-82.064	-8.89948	-109.71	-76.4586	-32.3775	-127.027	-113	3.7306	-92.8848	-110.969	-18.0934	-119.785	-108.732	-50.2529	-126.942	-138.108	-4.2178	-85.3973	-134.496	-25.7253	-106.983	-132.897	-59.5873	-105.572	-157.721	-12.6368	-71.8629	-156.639	-33.1199	-85.0482	-144.972	-63.2479	-81.0112	-140.279	19.8133	-35.3173	-139.156	25.5962	-8.76792	-105.152	26.6165	-19.1107	
